#N canvas 0 22 464 505 10;
#X obj 92 38 adc~ 3;
#X obj 138 140 wrap;
#X obj 92 165 -;
#X obj 92 110 * 10;
#X obj 92 222 sel 0 1 4 6 8 9;
#X msg 92 374 No Button;
#X msg 106 353 Button 1;
#X msg 121 332 Button 2;
#X msg 135 311 Button 3;
#X msg 150 290 Button 4;
#X msg 164 269 Button 5;
#X msg 179 248 Error;
#X obj 36 397 print;
#X obj 92 194 change;
#X obj 211 31 loadbang;
#X obj 92 84 snapshot~;
#X obj 211 56 metro 5;
#X connect 0 0 15 0;
#X connect 1 0 2 1;
#X connect 2 0 13 0;
#X connect 3 0 1 0;
#X connect 3 0 2 0;
#X connect 4 0 5 0;
#X connect 4 1 6 0;
#X connect 4 2 7 0;
#X connect 4 3 8 0;
#X connect 4 4 9 0;
#X connect 4 5 10 0;
#X connect 4 6 11 0;
#X connect 5 0 12 0;
#X connect 6 0 12 0;
#X connect 7 0 12 0;
#X connect 8 0 12 0;
#X connect 9 0 12 0;
#X connect 10 0 12 0;
#X connect 11 0 12 0;
#X connect 13 0 4 0;
#X connect 14 0 16 0;
#X connect 15 0 3 0;
#X connect 16 0 15 0;
