#N canvas 0 22 476 450 10;
#X obj 52 22 loadbang;
#N canvas 450 99 1091 704 send_to_output 1;
#X text 528 252 (all this because each command is 2 words long);
#X obj 209 237 sig~;
#X floatatom 209 214 5 0 0 0 - - -, f 5;
#X obj 278 237 sig~;
#X floatatom 278 214 5 0 0 0 - - -, f 5;
#X obj 346 237 sig~;
#X floatatom 346 214 5 0 0 0 - - -, f 5;
#X obj 9 237 sig~;
#X floatatom 9 214 5 0 0 0 - - -, f 5;
#X obj 74 237 sig~;
#X floatatom 74 214 5 0 0 0 - - -, f 5;
#X obj 143 237 sig~;
#X floatatom 143 214 5 0 0 0 - - -, f 5;
#X obj 143 260 dac~ 10;
#X obj 209 260 dac~ 9;
#X obj 278 260 dac~ 8;
#X obj 346 260 dac~ 7;
#X msg 74 190 \$1;
#X msg 143 190 \$2;
#X msg 209 190 \$3;
#X msg 278 190 \$4;
#X msg 346 190 \$5;
#X msg -52 117 1;
#X msg 9 186 0;
#X obj 208 -68 r bincom;
#X obj 74 260 dac~ 5;
#X obj 9 260 dac~ 6;
#X obj -80 205 tgl 15 0 empty empty empty 17 7 0 10 -262144 -1 -1 0
1;
#X obj -61 298 s lcd_next;
#X obj -38 -68 r bincom2;
#X text 80 282 RS;
#X msg -38 23 1 0 0 0 0;
#X msg -38 -40 set \$1 \$2 \$3 \$4 \$5;
#X obj 81 73 t b l;
#X obj 159 -40 bng 15 250 50 0 empty empty empty 17 7 0 10 -262144
-1 -1;
#X msg 208 23 1 0 0 1 0;
#X msg 208 -40 set \$1 \$2 \$3 \$4 \$5;
#X text 23 283 E;
#X obj -135 -40 bng 15 250 50 0 empty empty empty 17 7 0 10 -262144
-1 -1;
#X obj -85 -10 del 0.1;
#X obj 159 -10 del 0.1;
#X obj 9 160 del 0.5;
#X obj -80 318 del 0.5;
#X obj -61 277 del 1;
#X obj -80 239 sel 1 0;
#X text 179 283 <------digi pins 0 - 3------>;
#X text 491 76 waits 0.1ms;
#X text 489 58 first bang sets E high;
#X text 144 -58 first;
#X text -136 -59 second;
#X text 584 172 waits 0.1ms;
#X text 582 154 second bang sets E high;
#X text 489 97 first list goes to 5 analogue pins;
#X text 582 193 second list goes to 5 analogue pins;
#X text 493 232 if toggle is OFF then wait 1ms and send for the next
command;
#X text 492 138 if toggle is ON then wait 0.5ms and then do the second
bang;
#X text 493 117 waits 0.5ms and then sets E low and sets toggle to
ON;
#X text 586 213 waits 0.5ms and then sets E low and sets toggle to
OFF;
#X text 491 29 WHAT HAPPENS EACH TIME A CHARACTER IS RECEIVED:;
#X connect 1 0 14 0;
#X connect 2 0 1 0;
#X connect 3 0 15 0;
#X connect 4 0 3 0;
#X connect 5 0 16 0;
#X connect 6 0 5 0;
#X connect 7 0 26 0;
#X connect 8 0 7 0;
#X connect 9 0 25 0;
#X connect 10 0 9 0;
#X connect 11 0 13 0;
#X connect 12 0 11 0;
#X connect 17 0 10 0;
#X connect 18 0 12 0;
#X connect 19 0 2 0;
#X connect 20 0 4 0;
#X connect 21 0 6 0;
#X connect 22 0 8 0;
#X connect 23 0 8 0;
#X connect 24 0 34 0;
#X connect 24 0 36 0;
#X connect 27 0 44 0;
#X connect 29 0 32 0;
#X connect 31 0 33 0;
#X connect 32 0 31 0;
#X connect 33 0 41 0;
#X connect 33 1 17 0;
#X connect 33 1 18 0;
#X connect 33 1 19 0;
#X connect 33 1 20 0;
#X connect 33 1 21 0;
#X connect 34 0 22 0;
#X connect 34 0 40 0;
#X connect 35 0 33 0;
#X connect 36 0 35 0;
#X connect 38 0 22 0;
#X connect 38 0 39 0;
#X connect 39 0 31 0;
#X connect 40 0 35 0;
#X connect 41 0 23 0;
#X connect 41 0 27 0;
#X connect 42 0 38 0;
#X connect 43 0 28 0;
#X connect 44 0 42 0;
#X connect 44 1 43 0;
#X restore 115 126 pd send_to_output;
#X text 151 229 _ = space;
#X text 151 249 * = line 2;
#N canvas 544 138 817 532 convert_string 1;
#N canvas 0 22 450 278 (subpatch) 0;
#X array displaytext 32 float 3;
#A 0 94 80 76 65 89 95 80 65 84 84 69 82 78 58 95 48 95 95 95 79 77
95 51 58 95 48 95 95 95 95 95 95;
#X coords 0 150 32 -0 200 140 1 0 0;
#X restore 459 34 graph;
#X obj 165 289 f 0;
#X obj 193 289 + 1;
#X obj 211 256 bng 15 250 50 0 empty char_tick empty 17 7 0 10 -262144
-1 -1;
#X floatatom 165 315 5 0 0 0 - - -, f 5;
#X obj 211 227 spigot;
#N canvas 1231 465 653 321 char_route 0;
#X obj -99 -6 inlet;
#N canvas 761 473 450 300 A 0;
#X msg 126 95 1 0 1 0 0;
#X obj 126 27 inlet;
#X obj 156 358 s command;
#X obj 126 157 s bincom;
#X msg 213 94 1 0 0 0 1;
#X obj 213 155 s bincom2;
#X connect 0 0 3 0;
#X connect 1 0 0 0;
#X connect 1 0 4 0;
#X connect 4 0 5 0;
#X restore -99 107 pd A;
#N canvas 773 485 450 300 B 0;
#X msg 136 105 1 0 1 0 0;
#X obj 136 37 inlet;
#X obj 166 368 s command;
#X obj 136 167 s bincom;
#X msg 223 104 1 0 0 1 0;
#X obj 223 166 s bincom2;
#X connect 0 0 3 0;
#X connect 1 0 0 0;
#X connect 1 0 4 0;
#X connect 4 0 5 0;
#X restore -92 127 pd B;
#N canvas 761 473 450 300 D 0;
#X msg 126 95 1 0 1 0 0;
#X obj 126 27 inlet;
#X obj 156 358 s command;
#X obj 126 157 s bincom;
#X msg 213 94 1 0 1 0 0;
#X obj 213 157 s bincom2;
#X connect 0 0 3 0;
#X connect 1 0 0 0;
#X connect 1 0 4 0;
#X connect 4 0 5 0;
#X restore -76 167 pd D;
#N canvas 773 485 450 300 E 0;
#X msg 136 105 1 0 1 0 0;
#X obj 136 37 inlet;
#X obj 166 368 s command;
#X obj 136 167 s bincom;
#X msg 223 104 1 0 1 0 1;
#X obj 223 166 s bincom2;
#X connect 0 0 3 0;
#X connect 1 0 0 0;
#X connect 1 0 4 0;
#X connect 4 0 5 0;
#X restore -68 107 pd E;
#N canvas 773 485 450 300 F 0;
#X msg 136 105 1 0 1 0 0;
#X obj 136 37 inlet;
#X obj 166 368 s command;
#X obj 136 167 s bincom;
#X msg 223 104 1 0 1 1 0;
#X obj 223 166 s bincom2;
#X connect 0 0 3 0;
#X connect 1 0 0 0;
#X connect 1 0 4 0;
#X connect 4 0 5 0;
#X restore -61 127 pd F;
#N canvas 761 473 450 300 G 0;
#X msg 126 95 1 0 1 0 0;
#X obj 126 27 inlet;
#X obj 156 358 s command;
#X obj 126 157 s bincom;
#X msg 213 94 1 0 1 1 1;
#X obj 213 156 s bincom2;
#X connect 0 0 3 0;
#X connect 1 0 0 0;
#X connect 1 0 4 0;
#X connect 4 0 5 0;
#X restore -53 147 pd G;
#N canvas 773 485 450 300 H 0;
#X msg 136 105 1 0 1 0 0;
#X obj 136 37 inlet;
#X obj 166 368 s command;
#X obj 136 167 s bincom;
#X msg 223 104 1 1 0 0 0;
#X obj 223 166 s bincom2;
#X connect 0 0 3 0;
#X connect 1 0 0 0;
#X connect 1 0 4 0;
#X connect 4 0 5 0;
#X restore -45 167 pd H;
#N canvas 773 485 450 300 I 0;
#X msg 136 105 1 0 1 0 0;
#X obj 136 37 inlet;
#X obj 166 368 s command;
#X obj 136 167 s bincom;
#X msg 223 104 1 1 0 0 1;
#X obj 223 166 s bincom2;
#X connect 0 0 3 0;
#X connect 1 0 0 0;
#X connect 1 0 4 0;
#X connect 4 0 5 0;
#X restore -37 107 pd I;
#N canvas 761 473 450 300 J 0;
#X msg 126 95 1 0 1 0 0;
#X obj 126 27 inlet;
#X obj 156 358 s command;
#X obj 126 157 s bincom;
#X msg 213 94 1 1 0 1 0;
#X obj 213 154 s bincom2;
#X connect 0 0 3 0;
#X connect 1 0 0 0;
#X connect 1 0 4 0;
#X connect 4 0 5 0;
#X restore -30 127 pd J;
#N canvas 773 485 450 300 K 0;
#X msg 136 105 1 0 1 0 0;
#X obj 136 37 inlet;
#X obj 166 368 s command;
#X obj 136 167 s bincom;
#X msg 223 104 1 1 0 1 1;
#X obj 223 166 s bincom2;
#X connect 0 0 3 0;
#X connect 1 0 0 0;
#X connect 1 0 4 0;
#X connect 4 0 5 0;
#X restore -22 147 pd K;
#N canvas 773 485 450 300 L 0;
#X msg 136 105 1 0 1 0 0;
#X obj 136 37 inlet;
#X obj 166 368 s command;
#X obj 136 167 s bincom;
#X msg 223 104 1 1 1 0 0;
#X obj 223 166 s bincom2;
#X connect 0 0 3 0;
#X connect 1 0 0 0;
#X connect 1 0 4 0;
#X connect 4 0 5 0;
#X restore -14 167 pd L;
#N canvas 761 473 450 300 M 0;
#X msg 126 95 1 0 1 0 0;
#X obj 126 27 inlet;
#X obj 156 358 s command;
#X obj 126 157 s bincom;
#X msg 213 94 1 1 1 0 1;
#X obj 213 155 s bincom2;
#X connect 0 0 3 0;
#X connect 1 0 0 0;
#X connect 1 0 4 0;
#X connect 4 0 5 0;
#X restore -6 107 pd M;
#N canvas 773 485 450 300 N 0;
#X msg 136 105 1 0 1 0 0;
#X obj 136 37 inlet;
#X obj 166 368 s command;
#X obj 136 167 s bincom;
#X msg 223 104 1 1 1 1 0;
#X obj 223 166 s bincom2;
#X connect 0 0 3 0;
#X connect 1 0 0 0;
#X connect 1 0 4 0;
#X connect 4 0 5 0;
#X restore 1 127 pd N;
#N canvas 773 485 450 300 O 0;
#X msg 136 105 1 0 1 0 0;
#X obj 136 37 inlet;
#X obj 166 368 s command;
#X obj 136 167 s bincom;
#X msg 223 104 1 1 1 1 1;
#X obj 223 166 s bincom2;
#X connect 0 0 3 0;
#X connect 1 0 0 0;
#X connect 1 0 4 0;
#X connect 4 0 5 0;
#X restore 9 147 pd O;
#N canvas 761 473 450 300 P 0;
#X obj 126 27 inlet;
#X obj 156 358 s command;
#X obj 126 157 s bincom;
#X msg 126 95 1 0 1 0 1;
#X msg 213 94 1 0 0 0 0;
#X obj 213 154 s bincom2;
#X connect 0 0 3 0;
#X connect 0 0 4 0;
#X connect 3 0 2 0;
#X connect 4 0 5 0;
#X restore 17 167 pd P;
#N canvas 773 485 450 300 Q 0;
#X obj 136 37 inlet;
#X obj 166 368 s command;
#X obj 136 167 s bincom;
#X msg 136 105 1 0 1 0 1;
#X msg 223 104 1 0 0 0 1;
#X obj 223 166 s bincom2;
#X connect 0 0 3 0;
#X connect 0 0 4 0;
#X connect 3 0 2 0;
#X connect 4 0 5 0;
#X restore 25 107 pd Q;
#N canvas 773 485 450 300 R 0;
#X obj 136 37 inlet;
#X obj 166 368 s command;
#X obj 136 167 s bincom;
#X msg 136 105 1 0 1 0 1;
#X msg 223 104 1 0 0 1 0;
#X obj 223 166 s bincom2;
#X connect 0 0 3 0;
#X connect 0 0 4 0;
#X connect 3 0 2 0;
#X connect 4 0 5 0;
#X restore 32 127 pd R;
#N canvas 761 473 450 300 S 0;
#X obj 126 27 inlet;
#X obj 156 358 s command;
#X obj 126 157 s bincom;
#X msg 126 95 1 0 1 0 1;
#X msg 213 94 1 0 0 1 1;
#X obj 213 155 s bincom2;
#X connect 0 0 3 0;
#X connect 0 0 4 0;
#X connect 3 0 2 0;
#X connect 4 0 5 0;
#X restore 40 147 pd S;
#N canvas 773 485 450 300 T 0;
#X obj 136 37 inlet;
#X obj 166 368 s command;
#X obj 136 167 s bincom;
#X msg 136 105 1 0 1 0 1;
#X msg 223 104 1 0 1 0 0;
#X obj 223 166 s bincom2;
#X connect 0 0 3 0;
#X connect 0 0 4 0;
#X connect 3 0 2 0;
#X connect 4 0 5 0;
#X restore 48 167 pd T;
#N canvas 773 485 450 300 U 0;
#X obj 136 37 inlet;
#X obj 166 368 s command;
#X obj 136 167 s bincom;
#X msg 136 105 1 0 1 0 1;
#X msg 223 104 1 0 1 0 1;
#X obj 223 166 s bincom2;
#X connect 0 0 3 0;
#X connect 0 0 4 0;
#X connect 3 0 2 0;
#X connect 4 0 5 0;
#X restore 56 107 pd U;
#N canvas 761 473 450 300 V 0;
#X obj 126 27 inlet;
#X obj 156 358 s command;
#X obj 126 157 s bincom;
#X msg 126 95 1 0 1 0 1;
#X msg 213 94 1 0 1 1 0;
#X obj 213 157 s bincom2;
#X connect 0 0 3 0;
#X connect 0 0 4 0;
#X connect 3 0 2 0;
#X connect 4 0 5 0;
#X restore 63 127 pd V;
#N canvas 773 485 450 300 W 0;
#X obj 136 37 inlet;
#X obj 166 368 s command;
#X obj 136 167 s bincom;
#X msg 136 105 1 0 1 0 1;
#X msg 223 104 1 0 1 1 1;
#X obj 223 166 s bincom2;
#X connect 0 0 3 0;
#X connect 0 0 4 0;
#X connect 3 0 2 0;
#X connect 4 0 5 0;
#X restore 71 147 pd W;
#N canvas 773 485 450 300 X 0;
#X obj 136 37 inlet;
#X obj 166 368 s command;
#X obj 136 167 s bincom;
#X msg 136 105 1 0 1 0 1;
#X msg 223 104 1 1 0 0 0;
#X obj 223 166 s bincom2;
#X connect 0 0 3 0;
#X connect 0 0 4 0;
#X connect 3 0 2 0;
#X connect 4 0 5 0;
#X restore 79 167 pd X;
#N canvas 761 473 450 300 Y 0;
#X obj 126 27 inlet;
#X obj 156 358 s command;
#X obj 126 157 s bincom;
#X msg 126 95 1 0 1 0 1;
#X msg 213 94 1 1 0 0 1;
#X obj 213 158 s bincom2;
#X connect 0 0 3 0;
#X connect 0 0 4 0;
#X connect 3 0 2 0;
#X connect 4 0 5 0;
#X restore 87 107 pd Y;
#N canvas 773 485 450 300 Z 0;
#X obj 136 37 inlet;
#X obj 166 368 s command;
#X obj 136 167 s bincom;
#X msg 136 105 1 0 1 0 1;
#X msg 223 104 1 1 0 1 0;
#X obj 223 166 s bincom2;
#X connect 0 0 3 0;
#X connect 0 0 4 0;
#X connect 3 0 2 0;
#X connect 4 0 5 0;
#X restore 95 127 pd Z;
#N canvas 773 485 450 300 C 0;
#X msg 136 105 1 0 1 0 0;
#X obj 136 37 inlet;
#X obj 166 368 s command;
#X obj 136 167 s bincom;
#X msg 223 104 1 0 0 1 1;
#X obj 223 166 s bincom2;
#X connect 0 0 3 0;
#X connect 1 0 0 0;
#X connect 1 0 4 0;
#X connect 4 0 5 0;
#X restore -84 147 pd C;
#N canvas 1108 119 500 324 line2 0;
#X obj 136 37 inlet;
#X obj 166 368 s command;
#X obj 136 167 s bincom;
#X msg 136 107 0 1 0 1 1;
#X msg 212 107 0 1 1 0 1;
#X obj 212 164 s bincom2;
#X connect 0 0 3 0;
#X connect 0 0 4 0;
#X connect 3 0 2 0;
#X connect 4 0 5 0;
#X restore 118 107 pd line2;
#N canvas 1180 119 450 300 clr 0;
#X obj 136 37 inlet;
#X obj 166 368 s command;
#X obj 136 167 s bincom;
#X msg 136 105 0 0 0 0 0;
#X msg 223 104 0 0 0 0 1;
#X obj 223 166 s bincom2;
#X connect 0 0 3 0;
#X connect 0 0 4 0;
#X connect 3 0 2 0;
#X connect 4 0 5 0;
#X restore 111 167 pd clr;
#N canvas 773 485 450 300 (subpatch) 0;
#X obj 136 37 inlet;
#X obj 166 368 s command;
#X obj 136 167 s bincom;
#X msg 136 105 1 0 0 1 1;
#X msg 223 104 1 0 0 0 0;
#X obj 223 163 s bincom2;
#X connect 0 0 3 0;
#X connect 0 0 4 0;
#X connect 3 0 2 0;
#X connect 4 0 5 0;
#X restore 126 127 pd 0;
#N canvas 773 485 450 300 (subpatch) 0;
#X obj 166 368 s command;
#X obj 136 37 inlet;
#X obj 136 167 s bincom;
#X msg 136 105 1 0 0 1 1;
#X msg 223 104 1 0 0 0 1;
#X obj 223 166 s bincom2;
#X connect 1 0 3 0;
#X connect 1 0 4 0;
#X connect 3 0 2 0;
#X connect 4 0 5 0;
#X restore 139 147 pd 1;
#N canvas 773 485 450 300 (subpatch) 0;
#X obj 136 37 inlet;
#X obj 136 167 s bincom;
#X msg 136 105 1 0 0 1 1;
#X msg 223 104 1 0 0 1 0;
#X obj 223 166 s bincom2;
#X connect 0 0 2 0;
#X connect 0 0 3 0;
#X connect 2 0 1 0;
#X connect 3 0 4 0;
#X restore 155 167 pd 2;
#N canvas 773 485 450 300 (subpatch) 0;
#X obj 136 37 inlet;
#X obj 166 368 s command;
#X obj 136 167 s bincom;
#X msg 223 104 1 0 0 1 1;
#X msg 136 105 1 0 0 1 1;
#X obj 223 166 s bincom2;
#X connect 0 0 4 0;
#X connect 0 0 3 0;
#X connect 3 0 5 0;
#X connect 4 0 2 0;
#X restore 158 127 pd 3;
#N canvas 773 485 450 300 (subpatch) 0;
#X obj 136 37 inlet;
#X obj 166 368 s command;
#X obj 136 167 s bincom;
#X msg 136 105 1 0 0 1 1;
#X msg 223 104 1 0 1 0 0;
#X obj 223 166 s bincom2;
#X connect 0 0 3 0;
#X connect 0 0 4 0;
#X connect 3 0 2 0;
#X connect 4 0 5 0;
#X restore 171 147 pd 4;
#N canvas 773 485 450 300 (subpatch) 0;
#X obj 136 37 inlet;
#X obj 166 368 s command;
#X obj 136 167 s bincom;
#X msg 136 105 1 0 0 1 1;
#X msg 223 104 1 0 1 0 1;
#X obj 223 166 s bincom2;
#X connect 0 0 3 0;
#X connect 0 0 4 0;
#X connect 3 0 2 0;
#X connect 4 0 5 0;
#X restore 187 167 pd 5;
#N canvas 773 485 450 300 (subpatch) 0;
#X obj 136 37 inlet;
#X obj 136 167 s bincom;
#X msg 136 105 1 0 0 1 1;
#X msg 223 104 1 0 1 1 0;
#X obj 223 162 s bincom2;
#X connect 0 0 2 0;
#X connect 0 0 3 0;
#X connect 2 0 1 0;
#X connect 3 0 4 0;
#X restore 174 106 pd 6;
#N canvas 773 485 450 300 (subpatch) 0;
#X obj 136 37 inlet;
#X obj 166 368 s command;
#X obj 136 167 s bincom;
#X msg 136 105 1 0 0 1 1;
#X msg 223 104 1 0 1 1 1;
#X obj 223 166 s bincom2;
#X connect 0 0 3 0;
#X connect 0 0 4 0;
#X connect 3 0 2 0;
#X connect 4 0 5 0;
#X restore 189 127 pd 7;
#N canvas 773 485 450 300 (subpatch) 0;
#X obj 136 37 inlet;
#X obj 166 368 s command;
#X obj 136 167 s bincom;
#X msg 136 105 1 0 0 1 1;
#X msg 223 104 1 1 0 0 0;
#X obj 223 166 s bincom2;
#X connect 0 0 3 0;
#X connect 0 0 4 0;
#X connect 3 0 2 0;
#X connect 4 0 5 0;
#X restore 203 147 pd 8;
#N canvas 773 485 450 300 (subpatch) 0;
#X obj 136 37 inlet;
#X obj 166 368 s command;
#X obj 136 167 s bincom;
#X msg 136 105 1 0 0 1 1;
#X msg 223 104 1 1 0 0 1;
#X obj 223 166 s bincom2;
#X connect 0 0 3 0;
#X connect 0 0 4 0;
#X connect 3 0 2 0;
#X connect 4 0 5 0;
#X restore 219 167 pd 9;
#N canvas 773 485 450 300 qm 0;
#X obj 136 37 inlet;
#X obj 166 368 s command;
#X obj 136 167 s bincom;
#X msg 136 105 1 0 0 1 1;
#X msg 223 104 1 1 1 1 1;
#X obj 223 166 s bincom2;
#X connect 0 0 3 0;
#X connect 0 0 4 0;
#X connect 3 0 2 0;
#X connect 4 0 5 0;
#X restore 204 107 pd qm;
#N canvas 773 485 450 300 dot 0;
#X obj 136 37 inlet;
#X obj 166 368 s command;
#X obj 136 167 s bincom;
#X msg 136 105 1 0 0 1 0;
#X msg 223 104 1 1 1 1 0;
#X obj 223 166 s bincom2;
#X connect 0 0 3 0;
#X connect 0 0 4 0;
#X connect 3 0 2 0;
#X connect 4 0 5 0;
#X restore 220 127 pd dot;
#N canvas 773 485 450 300 colon 0;
#X obj 136 37 inlet;
#X obj 166 368 s command;
#X obj 136 167 s bincom;
#X msg 136 105 1 0 0 1 1;
#X msg 223 104 1 1 0 1 0;
#X obj 223 166 s bincom2;
#X connect 0 0 3 0;
#X connect 0 0 4 0;
#X connect 3 0 2 0;
#X connect 4 0 5 0;
#X restore 234 147 pd colon;
#N canvas 773 485 450 300 dash 0;
#X obj 136 37 inlet;
#X obj 166 368 s command;
#X obj 136 167 s bincom;
#X msg 136 105 1 0 0 1 0;
#X msg 223 104 1 1 1 0 1;
#X obj 223 166 s bincom2;
#X connect 0 0 3 0;
#X connect 0 0 4 0;
#X connect 3 0 2 0;
#X connect 4 0 5 0;
#X restore 250 167 pd dash;
#N canvas 773 485 450 300 em 0;
#X obj 136 37 inlet;
#X obj 166 368 s command;
#X obj 136 167 s bincom;
#X msg 136 105 1 0 0 1 0;
#X msg 223 104 1 0 0 0 1;
#X obj 223 166 s bincom2;
#X connect 0 0 3 0;
#X connect 0 0 4 0;
#X connect 3 0 2 0;
#X connect 4 0 5 0;
#X restore 242 107 pd em;
#N canvas 773 485 450 300 hash 0;
#X obj 136 37 inlet;
#X obj 166 368 s command;
#X obj 136 167 s bincom;
#X msg 136 105 1 1 1 1 1;
#X msg 223 104 1 1 1 1 1;
#X obj 223 166 s bincom2;
#X connect 0 0 3 0;
#X connect 0 0 4 0;
#X connect 3 0 2 0;
#X connect 4 0 5 0;
#X restore 263 127 pd hash;
#N canvas 578 334 450 300 vert 0;
#X obj 136 37 inlet;
#X obj 166 368 s command;
#X obj 136 167 s bincom;
#X msg 136 105 1 1 1 0 1;
#X msg 223 104 1 1 0 1 1;
#X obj 223 166 s bincom2;
#X connect 0 0 3 0;
#X connect 0 0 4 0;
#X connect 3 0 2 0;
#X connect 4 0 5 0;
#X restore 290 147 pd vert;
#N canvas 1180 119 450 300 sp 0;
#X obj 136 37 inlet;
#X obj 166 368 s command;
#X obj 136 167 s bincom;
#X msg 136 105 1 0 0 1 0;
#X msg 223 104 1 0 0 0 0;
#X obj 223 166 s bincom2;
#X connect 0 0 3 0;
#X connect 0 0 4 0;
#X connect 3 0 2 0;
#X connect 4 0 5 0;
#X restore 102 147 pd sp;
#N canvas 773 485 450 300 slash 0;
#X obj 136 37 inlet;
#X obj 166 368 s command;
#X obj 136 167 s bincom;
#X msg 136 105 1 0 0 1 0;
#X msg 223 104 1 1 1 1 1;
#X obj 223 166 s bincom2;
#X connect 0 0 3 0;
#X connect 0 0 4 0;
#X connect 3 0 2 0;
#X connect 4 0 5 0;
#X restore 300 167 pd slash;
#N canvas 1180 119 450 300 home 0;
#X obj 136 37 inlet;
#X obj 166 368 s command;
#X obj 136 167 s bincom;
#X msg 136 105 0 0 0 0 0;
#X msg 223 104 0 0 0 1 0;
#X obj 223 166 s bincom2;
#X connect 0 0 3 0;
#X connect 0 0 4 0;
#X connect 3 0 2 0;
#X connect 4 0 5 0;
#X restore 279 107 pd home;
#N canvas 1180 119 450 300 left 0;
#X obj 136 37 inlet;
#X obj 166 368 s command;
#X obj 136 167 s bincom;
#X msg 136 105 0 0 0 0 1;
#X msg 223 104 0 0 0 0 0;
#X obj 223 166 s bincom2;
#X connect 0 0 3 0;
#X connect 0 0 4 0;
#X connect 3 0 2 0;
#X connect 4 0 5 0;
#X restore 312 127 pd left;
#X obj -72 15 sel 65 66 67 68 69 70 71 72 73 74 75 76 77 78 79 80 81
82 83 84 85 86 87 88 89 90 95 64 42 48 49 50 51 52 53 54 55 56 57 63
46 58 45 33 35 124 47 94 91 38;
#N canvas 1180 119 450 300 and 0;
#X obj 136 37 inlet;
#X obj 166 368 s command;
#X obj 136 167 s bincom;
#X msg 223 104 1 0 1 1 0;
#X msg 136 105 1 0 0 1 0;
#X obj 223 166 s bincom2;
#X connect 0 0 4 0;
#X connect 0 0 3 0;
#X connect 3 0 5 0;
#X connect 4 0 2 0;
#X restore 329 107 pd and;
#X connect 0 0 50 0;
#X connect 50 0 1 0;
#X connect 50 1 2 0;
#X connect 50 2 26 0;
#X connect 50 3 3 0;
#X connect 50 4 4 0;
#X connect 50 5 5 0;
#X connect 50 6 6 0;
#X connect 50 7 7 0;
#X connect 50 8 8 0;
#X connect 50 9 9 0;
#X connect 50 10 10 0;
#X connect 50 11 11 0;
#X connect 50 12 12 0;
#X connect 50 13 13 0;
#X connect 50 14 14 0;
#X connect 50 15 15 0;
#X connect 50 16 16 0;
#X connect 50 17 17 0;
#X connect 50 18 18 0;
#X connect 50 19 19 0;
#X connect 50 20 20 0;
#X connect 50 21 21 0;
#X connect 50 22 22 0;
#X connect 50 23 23 0;
#X connect 50 24 24 0;
#X connect 50 25 25 0;
#X connect 50 26 46 0;
#X connect 50 27 28 0;
#X connect 50 28 27 0;
#X connect 50 29 29 0;
#X connect 50 30 30 0;
#X connect 50 31 31 0;
#X connect 50 32 32 0;
#X connect 50 33 33 0;
#X connect 50 34 34 0;
#X connect 50 35 35 0;
#X connect 50 36 36 0;
#X connect 50 37 37 0;
#X connect 50 38 38 0;
#X connect 50 39 39 0;
#X connect 50 40 40 0;
#X connect 50 41 41 0;
#X connect 50 42 42 0;
#X connect 50 43 43 0;
#X connect 50 44 44 0;
#X connect 50 45 45 0;
#X connect 50 46 47 0;
#X connect 50 47 48 0;
#X connect 50 48 49 0;
#X connect 50 49 51 0;
#X connect 50 50 40 0;
#X restore 165 432 pd char_route;
#X obj 302 206 list fromsymbol;
#X obj 348 236 array set displaytext;
#X obj 165 374 tabread displaytext;
#X floatatom 165 404 5 0 0 0 - - -, f 5;
#X msg 165 220 0;
#X obj 302 184 symbol;
#X obj 302 268 list length;
#X obj 287 343 !=;
#X obj 302 295 - 1;
#X text 197 397 current char;
#X obj 300 11 loadbang;
#X msg 301 62 1;
#X floatatom 286 92 5 0 0 0 - - -, f 5;
#X text 326 91 0=busy 1=ready;
#X msg 269 62 0;
#X obj 370 386 sel 0;
#X obj 194 90 r string;
#X obj 194 132 spigot;
#X obj 211 195 r lcd_next;
#X obj 165 174 bng 15 250 50 0 empty empty empty 17 7 0 10 -262144
-1 -1;
#X obj 301 39 del 100;
#X obj 370 419 del 5;
#X obj 165 196 del 9;
#X text 236 129 block input;
#X text 234 141 if already busy;
#X text 74 187 wait for array;
#X text 85 204 to be set up;
#X text 52 287 loop until you've;
#X text 49 299 reached the end;
#X text 67 311 of the string;
#X text 65 377 send ASCII code;
#X text 79 393 to router;
#X text 135 449 converts ASCII number to;
#X text 135 461 10-bit binary command;
#X text 140 474 and sends to output;
#X text 377 276 and store them in the array;
#X text 383 264 convert string to ASCII numbers;
#X text 321 344 save string length here for;
#X text 321 354 comparison with loop counter;
#X connect 1 0 2 0;
#X connect 1 0 4 0;
#X connect 2 0 1 1;
#X connect 3 0 1 0;
#X connect 4 0 9 0;
#X connect 4 0 14 0;
#X connect 5 0 3 0;
#X connect 7 0 8 0;
#X connect 7 0 13 0;
#X connect 9 0 10 0;
#X connect 10 0 6 0;
#X connect 11 0 1 0;
#X connect 12 0 7 0;
#X connect 13 0 15 0;
#X connect 14 0 5 1;
#X connect 14 0 22 0;
#X connect 15 0 14 1;
#X connect 17 0 21 0;
#X connect 17 0 27 0;
#X connect 18 0 19 0;
#X connect 19 0 24 1;
#X connect 21 0 19 0;
#X connect 22 0 28 0;
#X connect 23 0 24 0;
#X connect 24 0 12 0;
#X connect 24 0 26 0;
#X connect 25 0 5 0;
#X connect 26 0 21 0;
#X connect 26 0 29 0;
#X connect 27 0 18 0;
#X connect 28 0 18 0;
#X connect 29 0 11 0;
#X restore 116 96 pd convert_string;
#N canvas 836 158 576 587 initialise_lcd 0;
#X msg 177 297 0 0 0 0 0;
#X obj 95 65 bng 15 250 50 0 empty empty empty 17 7 0 10 -262144 -1
-1;
#X msg 259 164 0 0 0 1 0;
#X obj 95 4 inlet;
#X obj 178 429 s bincom;
#X msg 175 122 0 0 0 1 1;
#X msg 248 122 0 0 0 1 1;
#X msg 183 164 0 0 0 1 1;
#X text 327 166 set to 4 bit mode;
#X text 350 197 function set;
#X text 354 212 set no of lines & font;
#X text 370 238 function set;
#X msg 250 253 0 1 1 0 0;
#X text 345 251 display on \, cursor off \, no blink;
#X text 368 294 entry mode;
#X msg 177 341 0 0 0 0 0;
#X msg 250 339 0 0 1 1 0;
#X msg 250 297 0 0 0 0 1;
#X msg 176 253 0 0 0 0 0;
#X msg 176 208 0 0 0 1 0;
#X text 357 340 clear display;
#X msg 249 208 0 1 0 0 0;
#X obj 20 414 bng 15 250 50 0 empty empty empty 17 7 0 10 -262144 -1
-1;
#X obj 20 536 s string;
#X obj 20 466 del 350;
#X obj 250 427 s bincom2;
#X msg -30 491 @HELLO;
#X msg 20 491 _WORLD;
#X msg 81 491 *SECOND LINE...;
#X text 135 444 send first word;
#X text 253 445 send second word;
#X obj 95 27 delay 100;
#X obj -30 466 del 50;
#X obj 81 466 del 750;
#X obj 96 122 del 4;
#X obj 96 165 del 4;
#X obj 96 208 del 4;
#X obj 96 253 del 4;
#X obj 96 297 del 4;
#X connect 0 0 4 0;
#X connect 1 0 5 0;
#X connect 1 0 6 0;
#X connect 1 0 34 0;
#X connect 2 0 25 0;
#X connect 3 0 31 0;
#X connect 5 0 4 0;
#X connect 6 0 25 0;
#X connect 7 0 4 0;
#X connect 12 0 25 0;
#X connect 15 0 4 0;
#X connect 16 0 25 0;
#X connect 17 0 25 0;
#X connect 18 0 4 0;
#X connect 19 0 4 0;
#X connect 21 0 25 0;
#X connect 22 0 24 0;
#X connect 22 0 32 0;
#X connect 22 0 33 0;
#X connect 24 0 27 0;
#X connect 26 0 23 0;
#X connect 27 0 23 0;
#X connect 28 0 23 0;
#X connect 31 0 1 0;
#X connect 31 0 22 0;
#X connect 32 0 26 0;
#X connect 33 0 28 0;
#X connect 34 0 7 0;
#X connect 34 0 2 0;
#X connect 34 0 35 0;
#X connect 35 0 19 0;
#X connect 35 0 21 0;
#X connect 35 0 36 0;
#X connect 36 0 18 0;
#X connect 36 0 12 0;
#X connect 36 0 37 0;
#X connect 37 0 0 0;
#X connect 37 0 17 0;
#X connect 37 0 38 0;
#X connect 38 0 15 0;
#X connect 38 0 16 0;
#X restore 117 67 pd initialise_lcd;
#X text 150 287 ^ = home;
#X obj 128 14 bng 15 250 50 0 empty empty empty 17 7 0 10 -262144 -1
-1;
#X text 148 188 bang a message into [s string] to display text;
#X text 273 292 example;
#X msg 275 311 @BELA;
#X obj 275 339 s string;
#X text 147 205 UPPER CASE ONLY + numbers and some punctuation;
#X text 151 267 @ = clear;
#X text 152 311 [ = cursor left;
#X connect 0 0 5 0;
#X connect 7 0 5 0;
#X connect 10 0 11 0;
