#N canvas 400 117 900 944 10;
#X text 387 -137 DAC 10 = pin7 DAC 9 = pin6 DAC 8 = pin5 DAC 7 = pin4
DAC 6 = RS DAC 5 = Enable;
#N canvas 16 224 470 547 initialise 0;
#X msg 177 346 0 0 0 0 0;
#X obj 95 65 bng 15 250 50 0 empty empty empty 17 7 0 10 -262144 -1
-1;
#X msg 177 201 0 0 0 1 0;
#X obj 95 35 inlet;
#X obj 126 483 s bincom;
#X msg 174 122 0 0 0 1 1;
#X msg 175 147 0 0 0 1 1;
#X msg 176 173 0 0 0 1 1;
#X text 256 202 set to 4 bit mode;
#X text 261 231 function set;
#X text 264 258 set no of lines & font;
#X text 268 286 function set;
#X msg 177 317 0 1 1 0 0;
#X text 270 313 display on \, cursor off \, no blink;
#X text 272 345 entry mode;
#X msg 177 407 0 0 0 0 0;
#X msg 177 436 0 0 1 1 0;
#X msg 177 375 0 0 0 0 1;
#X msg 177 288 0 0 0 0 0;
#X msg 177 230 0 0 0 1 0;
#X text 270 371 clear display;
#X msg 177 259 0 1 0 0 0;
#X obj 95 114 del 2;
#X obj 95 141 del 2;
#X obj 95 171 del 2;
#X obj 95 199 del 2;
#X obj 95 229 del 2;
#X obj 95 260 del 2;
#X obj 95 289 del 2;
#X obj 95 316 del 2;
#X obj 95 347 del 2;
#X obj 95 378 del 2;
#X obj 95 408 del 2;
#X connect 0 0 4 0;
#X connect 1 0 5 0;
#X connect 1 0 22 0;
#X connect 2 0 4 0;
#X connect 3 0 1 0;
#X connect 5 0 4 0;
#X connect 6 0 4 0;
#X connect 7 0 4 0;
#X connect 12 0 4 0;
#X connect 15 0 4 0;
#X connect 16 0 4 0;
#X connect 17 0 4 0;
#X connect 18 0 4 0;
#X connect 19 0 4 0;
#X connect 21 0 4 0;
#X connect 22 0 6 0;
#X connect 22 0 23 0;
#X connect 23 0 7 0;
#X connect 23 0 24 0;
#X connect 24 0 2 0;
#X connect 24 0 25 0;
#X connect 25 0 19 0;
#X connect 25 0 26 0;
#X connect 26 0 21 0;
#X connect 26 0 27 0;
#X connect 27 0 18 0;
#X connect 27 0 28 0;
#X connect 28 0 12 0;
#X connect 28 0 29 0;
#X connect 29 0 0 0;
#X connect 29 0 30 0;
#X connect 30 0 17 0;
#X connect 30 0 31 0;
#X connect 31 0 15 0;
#X connect 31 0 32 0;
#X connect 32 0 16 0;
#X restore 26 -66 pd initialise;
#X obj 465 103 f 0;
#X obj 493 103 + 1;
#X obj 428 77 bng 15 250 50 0 empty char_tick empty 17 7 0 10 -262144
-1 -1;
#X floatatom 465 129 5 0 0 0 - - -, f 5;
#X obj 498 -42 r string;
#X obj 465 0 bng 15 250 50 0 empty empty empty 17 7 0 10 -262144 -1
-1;
#X obj 432 310 spigot;
#X obj 26 -124 loadbang;
#N canvas 888 131 610 375 send_to_output 0;
#X obj 277 145 sig~;
#X floatatom 277 123 5 0 0 0 - - -, f 5;
#X obj 346 145 sig~;
#X floatatom 346 123 5 0 0 0 - - -, f 5;
#X obj 414 145 sig~;
#X floatatom 414 122 5 0 0 0 - - -, f 5;
#X obj 516 145 sig~;
#X floatatom 516 122 5 0 0 0 - - -, f 5;
#X obj 142 145 sig~;
#X floatatom 142 123 5 0 0 0 - - -, f 5;
#X obj 211 145 sig~;
#X floatatom 211 123 5 0 0 0 - - -, f 5;
#X obj 211 168 dac~ 10;
#X obj 142 168 dac~ 6;
#X obj 277 168 dac~ 9;
#X obj 346 168 dac~ 8;
#X obj 414 168 dac~ 7;
#X obj 516 168 dac~ 5;
#X msg 142 97 \$1;
#X msg 211 97 \$2;
#X msg 277 97 \$3;
#X msg 346 97 \$4;
#X msg 414 97 \$5;
#X msg 260 53 1 0 1 0 1;
#X msg 516 65 1;
#X msg 467 89 0;
#X obj 243 -105 r bincom;
#X obj 51 88 print;
#X msg 277 23 set \$1 \$2 \$3 \$4 \$5;
#X obj 243 -70 t b b l b;
#X obj 467 65 del 1;
#X connect 0 0 14 0;
#X connect 1 0 0 0;
#X connect 2 0 15 0;
#X connect 3 0 2 0;
#X connect 4 0 16 0;
#X connect 5 0 4 0;
#X connect 6 0 17 0;
#X connect 7 0 6 0;
#X connect 8 0 13 0;
#X connect 9 0 8 0;
#X connect 10 0 12 0;
#X connect 11 0 10 0;
#X connect 18 0 9 0;
#X connect 19 0 11 0;
#X connect 20 0 1 0;
#X connect 21 0 3 0;
#X connect 22 0 5 0;
#X connect 23 0 18 0;
#X connect 23 0 19 0;
#X connect 23 0 20 0;
#X connect 23 0 21 0;
#X connect 23 0 22 0;
#X connect 23 0 27 0;
#X connect 24 0 7 0;
#X connect 25 0 7 0;
#X connect 26 0 29 0;
#X connect 28 0 23 0;
#X connect 29 1 23 0;
#X connect 29 2 28 0;
#X connect 29 3 24 0;
#X connect 29 3 30 0;
#X connect 30 0 25 0;
#X restore 268 -129 pd send_to_output;
#X text 384 218 current char;
#N canvas 1237 481 653 321 char_route 0;
#X obj -99 -6 inlet;
#N canvas 761 473 450 300 A 0;
#X msg 126 95 1 0 1 0 0;
#X obj 126 27 inlet;
#X obj 156 358 s command;
#X obj 126 157 s bincom;
#X msg 213 94 1 0 0 0 1;
#X obj 213 67 del 2;
#X connect 0 0 3 0;
#X connect 1 0 0 0;
#X connect 1 0 5 0;
#X connect 4 0 3 0;
#X connect 5 0 4 0;
#X restore -99 107 pd A;
#N canvas 773 485 450 300 B 0;
#X msg 136 105 1 0 1 0 0;
#X obj 136 37 inlet;
#X obj 166 368 s command;
#X obj 136 167 s bincom;
#X msg 223 104 1 0 0 1 0;
#X obj 223 77 del 2;
#X connect 0 0 3 0;
#X connect 1 0 0 0;
#X connect 1 0 5 0;
#X connect 4 0 3 0;
#X connect 5 0 4 0;
#X restore -92 127 pd B;
#N canvas 761 473 450 300 D 0;
#X msg 126 95 1 0 1 0 0;
#X obj 126 27 inlet;
#X obj 156 358 s command;
#X obj 126 157 s bincom;
#X msg 213 94 1 0 1 0 0;
#X obj 213 67 del 2;
#X connect 0 0 3 0;
#X connect 1 0 0 0;
#X connect 1 0 5 0;
#X connect 4 0 3 0;
#X connect 5 0 4 0;
#X restore -76 167 pd D;
#N canvas 773 485 450 300 E 0;
#X msg 136 105 1 0 1 0 0;
#X obj 136 37 inlet;
#X obj 166 368 s command;
#X obj 136 167 s bincom;
#X msg 223 104 1 0 1 0 1;
#X obj 223 77 del 2;
#X connect 0 0 3 0;
#X connect 1 0 0 0;
#X connect 1 0 5 0;
#X connect 4 0 3 0;
#X connect 5 0 4 0;
#X restore -68 107 pd E;
#N canvas 773 485 450 300 F 0;
#X msg 136 105 1 0 1 0 0;
#X obj 136 37 inlet;
#X obj 166 368 s command;
#X obj 136 167 s bincom;
#X msg 223 104 1 0 1 1 0;
#X obj 223 77 del 2;
#X connect 0 0 3 0;
#X connect 1 0 0 0;
#X connect 1 0 5 0;
#X connect 4 0 3 0;
#X connect 5 0 4 0;
#X restore -61 127 pd F;
#N canvas 761 473 450 300 G 0;
#X msg 126 95 1 0 1 0 0;
#X obj 126 27 inlet;
#X obj 156 358 s command;
#X obj 126 157 s bincom;
#X msg 213 94 1 0 1 1 1;
#X obj 213 67 del 2;
#X connect 0 0 3 0;
#X connect 1 0 0 0;
#X connect 1 0 5 0;
#X connect 4 0 3 0;
#X connect 5 0 4 0;
#X restore -53 147 pd G;
#N canvas 773 485 450 300 H 0;
#X msg 136 105 1 0 1 0 0;
#X obj 136 37 inlet;
#X obj 166 368 s command;
#X obj 136 167 s bincom;
#X msg 223 104 1 1 0 0 0;
#X obj 223 77 del 2;
#X connect 0 0 3 0;
#X connect 1 0 0 0;
#X connect 1 0 5 0;
#X connect 4 0 3 0;
#X connect 5 0 4 0;
#X restore -45 167 pd H;
#N canvas 773 485 450 300 I 0;
#X msg 136 105 1 0 1 0 0;
#X obj 136 37 inlet;
#X obj 166 368 s command;
#X obj 136 167 s bincom;
#X msg 223 104 1 1 0 0 1;
#X obj 223 77 del 2;
#X connect 0 0 3 0;
#X connect 1 0 0 0;
#X connect 1 0 5 0;
#X connect 4 0 3 0;
#X connect 5 0 4 0;
#X restore -37 107 pd I;
#N canvas 761 473 450 300 J 0;
#X msg 126 95 1 0 1 0 0;
#X obj 126 27 inlet;
#X obj 156 358 s command;
#X obj 126 157 s bincom;
#X msg 213 94 1 1 0 1 0;
#X obj 213 67 del 2;
#X connect 0 0 3 0;
#X connect 1 0 0 0;
#X connect 1 0 5 0;
#X connect 4 0 3 0;
#X connect 5 0 4 0;
#X restore -30 127 pd J;
#N canvas 773 485 450 300 K 0;
#X msg 136 105 1 0 1 0 0;
#X obj 136 37 inlet;
#X obj 166 368 s command;
#X obj 136 167 s bincom;
#X msg 223 104 1 1 0 1 1;
#X obj 223 77 del 2;
#X connect 0 0 3 0;
#X connect 1 0 0 0;
#X connect 1 0 5 0;
#X connect 4 0 3 0;
#X connect 5 0 4 0;
#X restore -22 147 pd K;
#N canvas 773 485 450 300 L 0;
#X msg 136 105 1 0 1 0 0;
#X obj 136 37 inlet;
#X obj 166 368 s command;
#X obj 136 167 s bincom;
#X msg 223 104 1 1 1 0 0;
#X obj 223 77 del 2;
#X connect 0 0 3 0;
#X connect 1 0 0 0;
#X connect 1 0 5 0;
#X connect 4 0 3 0;
#X connect 5 0 4 0;
#X restore -14 167 pd L;
#N canvas 761 473 450 300 M 0;
#X msg 126 95 1 0 1 0 0;
#X obj 126 27 inlet;
#X obj 156 358 s command;
#X obj 126 157 s bincom;
#X msg 213 94 1 1 1 0 1;
#X obj 213 67 del 2;
#X connect 0 0 3 0;
#X connect 1 0 0 0;
#X connect 1 0 5 0;
#X connect 4 0 3 0;
#X connect 5 0 4 0;
#X restore -6 107 pd M;
#N canvas 773 485 450 300 N 0;
#X msg 136 105 1 0 1 0 0;
#X obj 136 37 inlet;
#X obj 166 368 s command;
#X obj 136 167 s bincom;
#X msg 223 104 1 1 1 1 0;
#X obj 223 77 del 2;
#X connect 0 0 3 0;
#X connect 1 0 0 0;
#X connect 1 0 5 0;
#X connect 4 0 3 0;
#X connect 5 0 4 0;
#X restore 1 127 pd N;
#N canvas 773 485 450 300 O 0;
#X msg 136 105 1 0 1 0 0;
#X obj 136 37 inlet;
#X obj 166 368 s command;
#X obj 136 167 s bincom;
#X msg 223 104 1 1 1 1 1;
#X obj 223 77 del 2;
#X connect 0 0 3 0;
#X connect 1 0 0 0;
#X connect 1 0 5 0;
#X connect 4 0 3 0;
#X connect 5 0 4 0;
#X restore 9 147 pd O;
#N canvas 761 473 450 300 P 0;
#X obj 126 27 inlet;
#X obj 156 358 s command;
#X obj 126 157 s bincom;
#X msg 126 95 1 0 1 0 1;
#X msg 213 94 1 0 0 0 0;
#X obj 213 67 del 2;
#X connect 0 0 3 0;
#X connect 0 0 5 0;
#X connect 3 0 2 0;
#X connect 4 0 2 0;
#X connect 5 0 4 0;
#X restore 17 167 pd P;
#N canvas 773 485 450 300 Q 0;
#X obj 136 37 inlet;
#X obj 166 368 s command;
#X obj 136 167 s bincom;
#X msg 136 105 1 0 1 0 1;
#X msg 223 104 1 0 0 0 1;
#X obj 223 77 del 2;
#X connect 0 0 3 0;
#X connect 0 0 5 0;
#X connect 3 0 2 0;
#X connect 4 0 2 0;
#X connect 5 0 4 0;
#X restore 25 107 pd Q;
#N canvas 773 485 450 300 R 0;
#X obj 136 37 inlet;
#X obj 166 368 s command;
#X obj 136 167 s bincom;
#X msg 136 105 1 0 1 0 1;
#X msg 223 104 1 0 0 1 0;
#X obj 223 77 del 2;
#X connect 0 0 3 0;
#X connect 0 0 5 0;
#X connect 3 0 2 0;
#X connect 4 0 2 0;
#X connect 5 0 4 0;
#X restore 32 127 pd R;
#N canvas 761 473 450 300 S 0;
#X obj 126 27 inlet;
#X obj 156 358 s command;
#X obj 126 157 s bincom;
#X msg 126 95 1 0 1 0 1;
#X msg 213 94 1 0 0 1 1;
#X obj 213 67 del 2;
#X connect 0 0 3 0;
#X connect 0 0 5 0;
#X connect 3 0 2 0;
#X connect 4 0 2 0;
#X connect 5 0 4 0;
#X restore 40 147 pd S;
#N canvas 773 485 450 300 T 0;
#X obj 136 37 inlet;
#X obj 166 368 s command;
#X obj 136 167 s bincom;
#X msg 136 105 1 0 1 0 1;
#X msg 223 104 1 0 1 0 0;
#X obj 223 77 del 2;
#X connect 0 0 3 0;
#X connect 0 0 5 0;
#X connect 3 0 2 0;
#X connect 4 0 2 0;
#X connect 5 0 4 0;
#X restore 48 167 pd T;
#N canvas 773 485 450 300 U 0;
#X obj 136 37 inlet;
#X obj 166 368 s command;
#X obj 136 167 s bincom;
#X msg 136 105 1 0 1 0 1;
#X msg 223 104 1 0 1 0 1;
#X obj 223 77 del 2;
#X connect 0 0 3 0;
#X connect 0 0 5 0;
#X connect 3 0 2 0;
#X connect 4 0 2 0;
#X connect 5 0 4 0;
#X restore 56 107 pd U;
#N canvas 761 473 450 300 V 0;
#X obj 126 27 inlet;
#X obj 156 358 s command;
#X obj 126 157 s bincom;
#X msg 126 95 1 0 1 0 1;
#X msg 213 94 1 0 1 1 0;
#X obj 213 67 del 2;
#X connect 0 0 3 0;
#X connect 0 0 5 0;
#X connect 3 0 2 0;
#X connect 4 0 2 0;
#X connect 5 0 4 0;
#X restore 63 127 pd V;
#N canvas 773 485 450 300 W 0;
#X obj 136 37 inlet;
#X obj 166 368 s command;
#X obj 136 167 s bincom;
#X msg 136 105 1 0 1 0 1;
#X msg 223 104 1 0 1 1 1;
#X obj 223 77 del 2;
#X connect 0 0 3 0;
#X connect 0 0 5 0;
#X connect 3 0 2 0;
#X connect 4 0 2 0;
#X connect 5 0 4 0;
#X restore 71 147 pd W;
#N canvas 773 485 450 300 X 0;
#X obj 136 37 inlet;
#X obj 166 368 s command;
#X obj 136 167 s bincom;
#X msg 136 105 1 0 1 0 1;
#X msg 223 104 1 1 0 0 0;
#X obj 223 77 del 2;
#X connect 0 0 3 0;
#X connect 0 0 5 0;
#X connect 3 0 2 0;
#X connect 4 0 2 0;
#X connect 5 0 4 0;
#X restore 79 167 pd X;
#N canvas 761 473 450 300 Y 0;
#X obj 126 27 inlet;
#X obj 156 358 s command;
#X obj 126 157 s bincom;
#X msg 126 95 1 0 1 0 1;
#X msg 213 94 1 1 0 0 1;
#X obj 213 67 del 2;
#X connect 0 0 3 0;
#X connect 0 0 5 0;
#X connect 3 0 2 0;
#X connect 4 0 2 0;
#X connect 5 0 4 0;
#X restore 87 107 pd Y;
#N canvas 773 485 450 300 Z 0;
#X obj 136 37 inlet;
#X obj 166 368 s command;
#X obj 136 167 s bincom;
#X msg 136 105 1 0 1 0 1;
#X msg 223 104 1 1 0 1 0;
#X obj 223 77 del 2;
#X connect 0 0 3 0;
#X connect 0 0 5 0;
#X connect 3 0 2 0;
#X connect 4 0 2 0;
#X connect 5 0 4 0;
#X restore 95 127 pd Z;
#N canvas 773 485 450 300 C 0;
#X msg 136 105 1 0 1 0 0;
#X obj 136 37 inlet;
#X obj 166 368 s command;
#X obj 136 167 s bincom;
#X msg 223 104 1 0 0 1 1;
#X obj 223 77 del 2;
#X connect 0 0 3 0;
#X connect 1 0 0 0;
#X connect 1 0 5 0;
#X connect 4 0 3 0;
#X connect 5 0 4 0;
#X restore -84 147 pd C;
#X obj 341 168 outlet;
#X obj 341 113 bng 15 250 50 0 empty empty empty 17 7 0 10 -262144
-1 -1;
#X msg 341 137 0;
#N canvas 1108 119 500 324 line2 0;
#X obj 136 37 inlet;
#X obj 166 368 s command;
#X obj 136 167 s bincom;
#X obj 212 73 del 2;
#X msg 135 107 0 1 0 1 1;
#X msg 212 107 0 1 1 0 1;
#X connect 0 0 4 0;
#X connect 0 0 3 0;
#X connect 3 0 5 0;
#X connect 4 0 2 0;
#X connect 5 0 2 0;
#X restore 118 107 pd line2;
#N canvas 1180 119 450 300 clr 0;
#X obj 136 37 inlet;
#X obj 166 368 s command;
#X obj 136 167 s bincom;
#X obj 64 94 bng 15 250 50 0 empty empty empty 17 7 0 10 -262144 -1
-1;
#X obj 223 77 del 2;
#X msg 136 105 0 0 0 0 0;
#X msg 223 104 0 0 0 0 1;
#X connect 0 0 5 0;
#X connect 0 0 3 0;
#X connect 0 0 4 0;
#X connect 4 0 6 0;
#X connect 5 0 2 0;
#X connect 6 0 2 0;
#X restore 111 167 pd clr;
#N canvas 773 485 450 300 (subpatch) 0;
#X obj 136 37 inlet;
#X obj 166 368 s command;
#X obj 136 167 s bincom;
#X obj 223 77 del 2;
#X msg 136 105 1 0 0 1 1;
#X msg 223 104 1 0 0 0 0;
#X connect 0 0 4 0;
#X connect 0 0 3 0;
#X connect 3 0 5 0;
#X connect 4 0 2 0;
#X connect 5 0 2 0;
#X restore 126 127 pd 0;
#N canvas 773 485 450 300 (subpatch) 0;
#X obj 166 368 s command;
#X obj 136 37 inlet;
#X obj 136 167 s bincom;
#X obj 223 77 del 2;
#X msg 136 105 1 0 0 1 1;
#X msg 223 104 1 0 0 0 1;
#X connect 1 0 4 0;
#X connect 1 0 3 0;
#X connect 3 0 5 0;
#X connect 4 0 2 0;
#X connect 5 0 2 0;
#X restore 139 147 pd 1;
#N canvas 773 485 450 300 (subpatch) 0;
#X obj 136 37 inlet;
#X obj 136 167 s bincom;
#X obj 223 77 del 2;
#X msg 136 105 1 0 0 1 1;
#X msg 223 104 1 0 0 1 0;
#X connect 0 0 3 0;
#X connect 0 0 2 0;
#X connect 2 0 4 0;
#X connect 3 0 1 0;
#X connect 4 0 1 0;
#X restore 155 167 pd 2;
#N canvas 773 485 450 300 (subpatch) 0;
#X obj 136 37 inlet;
#X obj 166 368 s command;
#X obj 136 167 s bincom;
#X msg 223 104 1 0 0 1 1;
#X obj 223 77 del 2;
#X msg 136 105 1 0 0 1 1;
#X connect 0 0 5 0;
#X connect 0 0 4 0;
#X connect 3 0 2 0;
#X connect 4 0 3 0;
#X connect 5 0 2 0;
#X restore 158 127 pd 3;
#N canvas 773 485 450 300 (subpatch) 0;
#X obj 136 37 inlet;
#X obj 166 368 s command;
#X obj 136 167 s bincom;
#X obj 223 77 del 2;
#X msg 136 105 1 0 0 1 1;
#X msg 223 104 1 0 1 0 0;
#X connect 0 0 4 0;
#X connect 0 0 3 0;
#X connect 3 0 5 0;
#X connect 4 0 2 0;
#X connect 5 0 2 0;
#X restore 171 147 pd 4;
#N canvas 773 485 450 300 (subpatch) 0;
#X obj 136 37 inlet;
#X obj 166 368 s command;
#X obj 136 167 s bincom;
#X obj 223 77 del 2;
#X msg 136 105 1 0 0 1 1;
#X msg 223 104 1 0 1 0 1;
#X connect 0 0 4 0;
#X connect 0 0 3 0;
#X connect 3 0 5 0;
#X connect 4 0 2 0;
#X connect 5 0 2 0;
#X restore 187 167 pd 5;
#N canvas 773 485 450 300 (subpatch) 0;
#X obj 136 37 inlet;
#X obj 166 368 s command;
#X obj 136 167 s bincom;
#X obj 223 77 del 2;
#X msg 136 105 1 0 0 1 1;
#X msg 223 104 1 0 1 1 0;
#X connect 0 0 4 0;
#X connect 0 0 3 0;
#X connect 3 0 5 0;
#X connect 4 0 2 0;
#X connect 5 0 2 0;
#X restore 173 107 pd 6;
#N canvas 773 485 450 300 (subpatch) 0;
#X obj 136 37 inlet;
#X obj 166 368 s command;
#X obj 136 167 s bincom;
#X obj 223 77 del 2;
#X msg 136 105 1 0 0 1 1;
#X msg 223 104 1 0 1 1 1;
#X connect 0 0 4 0;
#X connect 0 0 3 0;
#X connect 3 0 5 0;
#X connect 4 0 2 0;
#X connect 5 0 2 0;
#X restore 189 127 pd 7;
#N canvas 773 485 450 300 (subpatch) 0;
#X obj 136 37 inlet;
#X obj 166 368 s command;
#X obj 136 167 s bincom;
#X obj 223 77 del 2;
#X msg 136 105 1 0 0 1 1;
#X msg 223 104 1 1 0 0 0;
#X connect 0 0 4 0;
#X connect 0 0 3 0;
#X connect 3 0 5 0;
#X connect 4 0 2 0;
#X connect 5 0 2 0;
#X restore 203 147 pd 8;
#N canvas 773 485 450 300 (subpatch) 0;
#X obj 136 37 inlet;
#X obj 166 368 s command;
#X obj 136 167 s bincom;
#X obj 223 77 del 2;
#X msg 136 105 1 0 0 1 1;
#X msg 223 104 1 1 0 0 1;
#X connect 0 0 4 0;
#X connect 0 0 3 0;
#X connect 3 0 5 0;
#X connect 4 0 2 0;
#X connect 5 0 2 0;
#X restore 219 167 pd 9;
#N canvas 773 485 450 300 qm 0;
#X obj 136 37 inlet;
#X obj 166 368 s command;
#X obj 136 167 s bincom;
#X obj 223 77 del 2;
#X msg 136 105 1 0 0 1 1;
#X msg 223 104 1 1 1 1 1;
#X connect 0 0 4 0;
#X connect 0 0 3 0;
#X connect 3 0 5 0;
#X connect 4 0 2 0;
#X connect 5 0 2 0;
#X restore 204 107 pd qm;
#N canvas 773 485 450 300 dot 0;
#X obj 136 37 inlet;
#X obj 166 368 s command;
#X obj 136 167 s bincom;
#X obj 223 77 del 2;
#X msg 136 105 1 0 0 1 0;
#X msg 223 104 1 1 1 1 0;
#X connect 0 0 4 0;
#X connect 0 0 3 0;
#X connect 3 0 5 0;
#X connect 4 0 2 0;
#X connect 5 0 2 0;
#X restore 220 127 pd dot;
#N canvas 773 485 450 300 colon 0;
#X obj 136 37 inlet;
#X obj 166 368 s command;
#X obj 136 167 s bincom;
#X obj 223 77 del 2;
#X msg 136 105 1 0 0 1 1;
#X msg 223 104 1 1 0 1 0;
#X connect 0 0 4 0;
#X connect 0 0 3 0;
#X connect 3 0 5 0;
#X connect 4 0 2 0;
#X connect 5 0 2 0;
#X restore 234 147 pd colon;
#N canvas 773 485 450 300 dash 0;
#X obj 136 37 inlet;
#X obj 166 368 s command;
#X obj 136 167 s bincom;
#X obj 223 77 del 2;
#X msg 136 105 1 0 0 1 0;
#X msg 223 104 1 1 1 0 1;
#X connect 0 0 4 0;
#X connect 0 0 3 0;
#X connect 3 0 5 0;
#X connect 4 0 2 0;
#X connect 5 0 2 0;
#X restore 250 167 pd dash;
#N canvas 773 485 450 300 em 0;
#X obj 136 37 inlet;
#X obj 166 368 s command;
#X obj 136 167 s bincom;
#X obj 223 77 del 2;
#X msg 136 105 1 0 0 1 0;
#X msg 223 104 1 0 0 0 1;
#X connect 0 0 4 0;
#X connect 0 0 3 0;
#X connect 3 0 5 0;
#X connect 4 0 2 0;
#X connect 5 0 2 0;
#X restore 242 107 pd em;
#N canvas 773 485 450 300 hash 0;
#X obj 136 37 inlet;
#X obj 166 368 s command;
#X obj 136 167 s bincom;
#X obj 223 77 del 2;
#X msg 136 105 1 1 1 1 1;
#X msg 223 104 1 1 1 1 1;
#X connect 0 0 4 0;
#X connect 0 0 3 0;
#X connect 3 0 5 0;
#X connect 4 0 2 0;
#X connect 5 0 2 0;
#X restore 263 127 pd hash;
#N canvas 578 334 450 300 vert 0;
#X obj 136 37 inlet;
#X obj 166 368 s command;
#X obj 136 167 s bincom;
#X obj 223 77 del 2;
#X msg 136 105 1 1 1 0 1;
#X msg 223 104 1 1 0 1 1;
#X connect 0 0 4 0;
#X connect 0 0 3 0;
#X connect 3 0 5 0;
#X connect 4 0 2 0;
#X connect 5 0 2 0;
#X restore 290 147 pd vert;
#X obj -99 20 sel 65 66 67 68 69 70 71 72 73 74 75 76 77 78 79 80 81
82 83 84 85 86 87 88 89 90 95 64 42 48 49 50 51 52 53 54 55 56 57 63
46 58 45 33 35 124;
#N canvas 1180 119 450 300 sp 0;
#X obj 136 37 inlet;
#X obj 166 368 s command;
#X obj 136 167 s bincom;
#X obj 64 94 bng 15 250 50 0 empty empty empty 17 7 0 10 -262144 -1
-1;
#X msg 136 105 1 0 0 1 0;
#X msg 223 104 1 0 0 0 0;
#X obj 223 77 del 2;
#X connect 0 0 4 0;
#X connect 0 0 3 0;
#X connect 0 0 6 0;
#X connect 4 0 2 0;
#X connect 5 0 2 0;
#X connect 6 0 5 0;
#X restore 102 147 pd sp;
#X text 339 188 stop;
#X connect 0 0 49 0;
#X connect 28 0 29 0;
#X connect 29 0 27 0;
#X connect 49 0 1 0;
#X connect 49 1 2 0;
#X connect 49 2 26 0;
#X connect 49 3 3 0;
#X connect 49 4 4 0;
#X connect 49 5 5 0;
#X connect 49 6 6 0;
#X connect 49 7 7 0;
#X connect 49 8 8 0;
#X connect 49 9 9 0;
#X connect 49 10 10 0;
#X connect 49 11 11 0;
#X connect 49 12 12 0;
#X connect 49 13 13 0;
#X connect 49 14 14 0;
#X connect 49 15 15 0;
#X connect 49 16 16 0;
#X connect 49 17 17 0;
#X connect 49 18 18 0;
#X connect 49 19 19 0;
#X connect 49 20 20 0;
#X connect 49 21 21 0;
#X connect 49 22 22 0;
#X connect 49 23 23 0;
#X connect 49 24 24 0;
#X connect 49 25 25 0;
#X connect 49 26 50 0;
#X connect 49 27 31 0;
#X connect 49 28 30 0;
#X connect 49 29 32 0;
#X connect 49 30 33 0;
#X connect 49 31 34 0;
#X connect 49 32 35 0;
#X connect 49 33 36 0;
#X connect 49 34 37 0;
#X connect 49 35 38 0;
#X connect 49 36 39 0;
#X connect 49 37 40 0;
#X connect 49 38 41 0;
#X connect 49 39 42 0;
#X connect 49 40 43 0;
#X connect 49 41 44 0;
#X connect 49 42 45 0;
#X connect 49 43 46 0;
#X connect 49 44 47 0;
#X connect 49 45 48 0;
#X connect 49 46 28 0;
#X restore 465 246 pd char_route;
#X obj 432 337 s char_tick;
#X text 357 60 r from char_tick;
#X obj 535 19 list fromsymbol;
#X text 81 74 @ = clr;
#N canvas 0 22 605 383 (subpatch) 0;
#X array displaytext 32 float 2;
#X coords 0 -1 1 1 200 140 1 0 0;
#X restore 107 197 graph;
#X obj 535 41 array set displaytext;
#X obj 465 188 tabread displaytext;
#X floatatom 465 218 5 0 0 0 - - -, f 5;
#X msg 465 62 0;
#X obj 432 169 bng 15 250 50 0 empty empty empty 17 7 0 10 -262144
-1 -1;
#X obj 535 -3 symbol;
#X obj 465 34 del;
#X obj 167 79 s string;
#X text 81 36 _ = space;
#X text 81 56 * = line 2;
#X obj 432 276 del 4;
#X obj 602 82 list length;
#X obj 587 187 !=;
#X obj 602 109 - 1;
#N canvas 0 22 450 300 demo_text 0;
#X obj 96 39 inlet;
#X obj 96 71 del 100;
#X obj 145 99 del 2000;
#X obj 213 131 del 2000;
#X obj 309 162 del 2000;
#X msg 213 164 @CLEAR_SCREEN;
#X msg 309 195 *SECOND_LINE;
#X msg 96 101 TEXT;
#X msg 145 132 _ADD_MORE;
#X obj 231 243 outlet;
#X connect 0 0 1 0;
#X connect 1 0 7 0;
#X connect 1 0 2 0;
#X connect 2 0 8 0;
#X connect 2 0 3 0;
#X connect 3 0 5 0;
#X connect 3 0 4 0;
#X connect 4 0 6 0;
#X connect 5 0 9 0;
#X connect 6 0 9 0;
#X connect 7 0 9 0;
#X connect 8 0 9 0;
#X restore 167 -65 pd demo_text;
#X text 5 -47 always initialise first!;
#X text 139 100 send text to "string";
#X connect 2 0 3 0;
#X connect 2 0 5 0;
#X connect 3 0 2 1;
#X connect 4 0 2 0;
#X connect 5 0 19 0;
#X connect 5 0 22 0;
#X connect 5 0 30 0;
#X connect 6 0 7 0;
#X connect 6 0 23 0;
#X connect 7 0 24 0;
#X connect 8 0 13 0;
#X connect 9 0 1 0;
#X connect 9 0 32 0;
#X connect 12 0 8 1;
#X connect 15 0 18 0;
#X connect 15 0 29 0;
#X connect 19 0 20 0;
#X connect 20 0 12 0;
#X connect 21 0 2 0;
#X connect 22 0 28 0;
#X connect 23 0 15 0;
#X connect 24 0 21 0;
#X connect 28 0 8 0;
#X connect 29 0 31 0;
#X connect 30 0 8 1;
#X connect 31 0 30 1;
#X connect 32 0 25 0;
